<svg width="29" height="28" viewBox="0 0 29 28" fill="none" xmlns="http://www.w3.org/2000/svg">
<rect x="0.5" width="28" height="28" rx="3.33333" stroke="#464646"/>
<path d="M9.5 23C8.95 23 8.47917 22.8042 8.0875 22.4125C7.69583 22.0208 7.5 21.55 7.5 21V8C7.21667 8 6.97917 7.90417 6.7875 7.7125C6.59583 7.52083 6.5 7.28333 6.5 7C6.5 6.71667 6.59583 6.47917 6.7875 6.2875C6.97917 6.09583 7.21667 6 7.5 6H11.5C11.5 5.71667 11.5958 5.47917 11.7875 5.2875C11.9792 5.09583 12.2167 5 12.5 5H16.5C16.7833 5 17.0208 5.09583 17.2125 5.2875C17.4042 5.47917 17.5 5.71667 17.5 6H21.5C21.7833 6 22.0208 6.09583 22.2125 6.2875C22.4042 6.47917 22.5 6.71667 22.5 7C22.5 7.28333 22.4042 7.52083 22.2125 7.7125C22.0208 7.90417 21.7833 8 21.5 8V21C21.5 21.55 21.3042 22.0208 20.9125 22.4125C20.5208 22.8042 20.05 23 19.5 23H9.5ZM19.5 8H9.5V21H19.5V8ZM12.5 19C12.7833 19 13.0208 18.9042 13.2125 18.7125C13.4042 18.5208 13.5 18.2833 13.5 18V11C13.5 10.7167 13.4042 10.4792 13.2125 10.2875C13.0208 10.0958 12.7833 10 12.5 10C12.2167 10 11.9792 10.0958 11.7875 10.2875C11.5958 10.4792 11.5 10.7167 11.5 11V18C11.5 18.2833 11.5958 18.5208 11.7875 18.7125C11.9792 18.9042 12.2167 19 12.5 19ZM16.5 19C16.7833 19 17.0208 18.9042 17.2125 18.7125C17.4042 18.5208 17.5 18.2833 17.5 18V11C17.5 10.7167 17.4042 10.4792 17.2125 10.2875C17.0208 10.0958 16.7833 10 16.5 10C16.2167 10 15.9792 10.0958 15.7875 10.2875C15.5958 10.4792 15.5 10.7167 15.5 11V18C15.5 18.2833 15.5958 18.5208 15.7875 18.7125C15.9792 18.9042 16.2167 19 16.5 19Z" fill="#B92727"/>
</svg>
