<svg width="29" height="28" viewBox="0 0 29 28" fill="none" xmlns="http://www.w3.org/2000/svg">
<rect x="0.5" width="28" height="28" rx="3.33333" stroke="#464646"/>
<path d="M7.5 21H8.925L18.7 11.225L17.275 9.8L7.5 19.575V21ZM6.5 23C6.21667 23 5.97917 22.9042 5.7875 22.7125C5.59583 22.5208 5.5 22.2833 5.5 22V19.575C5.5 19.3083 5.55 19.0542 5.65 18.8125C5.75 18.5708 5.89167 18.3583 6.075 18.175L18.7 5.575C18.9 5.39167 19.1208 5.25 19.3625 5.15C19.6042 5.05 19.8583 5 20.125 5C20.3917 5 20.65 5.05 20.9 5.15C21.15 5.25 21.3667 5.4 21.55 5.6L22.925 7C23.125 7.18333 23.2708 7.4 23.3625 7.65C23.4542 7.9 23.5 8.15 23.5 8.4C23.5 8.66667 23.4542 8.92083 23.3625 9.1625C23.2708 9.40417 23.125 9.625 22.925 9.825L10.325 22.425C10.1417 22.6083 9.92917 22.75 9.6875 22.85C9.44583 22.95 9.19167 23 8.925 23H6.5ZM17.975 10.525L17.275 9.8L18.7 11.225L17.975 10.525Z" fill="#242424"/>
</svg>
