<svg width="40" height="48" viewBox="0 0 40 48" fill="none" xmlns="http://www.w3.org/2000/svg">
<rect width="40" height="48" fill="white"/>
<path fill-rule="evenodd" clip-rule="evenodd" d="M28.75 20.25H25V15.25C25 14.5625 24.4375 14 23.75 14H11.25C10.5625 14 10 14.5625 10 15.25V32.75C10 33.4375 10.5625 34 11.25 34H15V29H20V34H28.75C29.4375 34 30 33.4375 30 32.75V21.5C30 20.8125 29.4375 20.25 28.75 20.25ZM16.25 26.5H12.5V22.75H16.25V26.5ZM16.25 20.25H12.5V16.5H16.25V20.25ZM22.5 26.5H18.75V22.75H22.5V26.5ZM22.5 20.25H18.75V16.5H22.5V20.25ZM27.5 31.5H25V29H27.5V31.5ZM27.5 26.5H25V22.75H27.5V26.5Z" fill="#464646"/>
</svg>
