<svg width="40" height="48" viewBox="0 0 40 48" fill="none" xmlns="http://www.w3.org/2000/svg">
<rect width="40" height="48" fill="white"/>
<path fill-rule="evenodd" clip-rule="evenodd" d="M20 34C14.475 34 10 29.525 10 24C10 18.475 14.475 14 20 14C25.525 14 30 18.475 30 24C30 29.525 25.525 34 20 34ZM25 20.25C24.65 20.25 24.3375 20.3875 24.1125 20.6125L18.75 25.9875L15.8875 23.1125C15.6625 22.8875 15.35 22.75 15 22.75C14.3125 22.75 13.75 23.3125 13.75 24C13.75 24.35 13.8875 24.6625 14.1125 24.8875L17.8625 28.6375C18.0875 28.8625 18.4 29 18.75 29C19.1 29 19.4125 28.8625 19.6375 28.6375L25.8875 22.3875C26.1125 22.1625 26.25 21.85 26.25 21.5C26.25 20.8125 25.6875 20.25 25 20.25Z" fill="#464646"/>
</svg>
