<svg width="40" height="48" viewBox="0 0 40 48" fill="none" xmlns="http://www.w3.org/2000/svg">
<rect width="40" height="48" fill="white"/>
<path fill-rule="evenodd" clip-rule="evenodd" d="M13 19.9902H22.57L21.28 21.2802C21.1 21.4702 20.99 21.7202 20.99 21.9903C20.99 22.5403 21.44 22.9903 21.99 22.9903C22.27 22.9903 22.52 22.8803 22.7 22.7003L25.69 19.7002C25.87 19.5202 25.98 19.2702 25.98 18.9901C25.98 18.7101 25.87 18.4601 25.69 18.2801L22.7 15.28C22.51 15.11 22.26 15 21.99 15C21.44 15 20.99 15.45 20.99 16C20.99 16.28 21.1 16.5301 21.28 16.7101L22.57 18.0001H13C12.45 18.0001 12 18.4501 12 19.0001C12.01 19.5502 12.45 19.9902 13 19.9902ZM25 26.0104H15.43L16.72 24.7204C16.9 24.5303 17.01 24.2803 17.01 24.0103C17.01 23.4603 16.56 23.0103 16.01 23.0103C15.73 23.0103 15.48 23.1203 15.3 23.3003L12.31 26.3004C12.13 26.4804 12.02 26.7304 12.02 27.0004C12.02 27.2804 12.13 27.5305 12.31 27.7105L15.3 30.7106C15.49 30.8906 15.74 31.0006 16.01 31.0006C16.56 31.0006 17.01 30.5506 17.01 30.0005C17.01 29.7205 16.9 29.4705 16.72 29.2905L15.43 28.0005H25C25.55 28.0005 26 27.5505 26 27.0004C26 26.4504 25.55 26.0104 25 26.0104Z" fill="#464646"/>
</svg>
