<svg width="40" height="48" viewBox="0 0 40 48" fill="none" xmlns="http://www.w3.org/2000/svg">
<rect width="40" height="48" fill="white"/>
<path d="M8 30V28.425C8 27.7083 8.36667 27.125 9.1 26.675C9.83333 26.225 10.8 26 12 26C12.2167 26 12.425 26.0042 12.625 26.0125C12.825 26.0208 13.0167 26.0417 13.2 26.075C12.9667 26.425 12.7917 26.7917 12.675 27.175C12.5583 27.5583 12.5 27.9583 12.5 28.375V30H8ZM14 30V28.375C14 27.8417 14.1458 27.3542 14.4375 26.9125C14.7292 26.4708 15.1417 26.0833 15.675 25.75C16.2083 25.4167 16.8458 25.1667 17.5875 25C18.3292 24.8333 19.1333 24.75 20 24.75C20.8833 24.75 21.6958 24.8333 22.4375 25C23.1792 25.1667 23.8167 25.4167 24.35 25.75C24.8833 26.0833 25.2917 26.4708 25.575 26.9125C25.8583 27.3542 26 27.8417 26 28.375V30H14ZM27.5 30V28.375C27.5 27.9417 27.4458 27.5333 27.3375 27.15C27.2292 26.7667 27.0667 26.4083 26.85 26.075C27.0333 26.0417 27.2208 26.0208 27.4125 26.0125C27.6042 26.0042 27.8 26 28 26C29.2 26 30.1667 26.2208 30.9 26.6625C31.6333 27.1042 32 27.6917 32 28.425V30H27.5ZM12 25C11.45 25 10.9792 24.8042 10.5875 24.4125C10.1958 24.0208 10 23.55 10 23C10 22.4333 10.1958 21.9583 10.5875 21.575C10.9792 21.1917 11.45 21 12 21C12.5667 21 13.0417 21.1917 13.425 21.575C13.8083 21.9583 14 22.4333 14 23C14 23.55 13.8083 24.0208 13.425 24.4125C13.0417 24.8042 12.5667 25 12 25ZM28 25C27.45 25 26.9792 24.8042 26.5875 24.4125C26.1958 24.0208 26 23.55 26 23C26 22.4333 26.1958 21.9583 26.5875 21.575C26.9792 21.1917 27.45 21 28 21C28.5667 21 29.0417 21.1917 29.425 21.575C29.8083 21.9583 30 22.4333 30 23C30 23.55 29.8083 24.0208 29.425 24.4125C29.0417 24.8042 28.5667 25 28 25ZM20 24C19.1667 24 18.4583 23.7083 17.875 23.125C17.2917 22.5417 17 21.8333 17 21C17 20.15 17.2917 19.4375 17.875 18.8625C18.4583 18.2875 19.1667 18 20 18C20.85 18 21.5625 18.2875 22.1375 18.8625C22.7125 19.4375 23 20.15 23 21C23 21.8333 22.7125 22.5417 22.1375 23.125C21.5625 23.7083 20.85 24 20 24Z" fill="#464646"/>
</svg>
