<svg width="40" height="48" viewBox="0 0 40 48" fill="none" xmlns="http://www.w3.org/2000/svg">
<rect width="40" height="48" fill="white"/>
<path fill-rule="evenodd" clip-rule="evenodd" d="M18.589 17.7961C18.3165 15.6518 16.4849 14.0262 14.3154 14C14.223 14.0116 14.1302 14.0216 14.0374 14.0317C13.8355 14.0535 13.6336 14.0753 13.4348 14.1131C11.5173 14.478 10.023 16.2869 10.0003 18.2412C9.99088 19.0874 10.2047 19.8768 10.5614 20.6289C11.4088 22.4178 12.6716 23.8919 14.0679 25.2623C14.2257 25.4178 14.4002 25.4122 14.5652 25.2568C14.7618 25.0718 14.9535 24.8802 15.139 24.6841C16.2285 23.5325 17.2265 22.3103 17.9438 20.883C18.4301 19.9147 18.7297 18.9047 18.589 17.7961ZM11.992 18.371C11.9831 17.1008 13.0349 16.0334 14.3021 16.0262C15.5677 16.0195 16.6256 17.0741 16.6333 18.3504C16.6411 19.6195 15.5865 20.6908 14.3226 20.6974C13.0609 20.7041 12.0008 19.6462 11.992 18.371ZM11.2844 23.1823V29.4123L11.8133 29.4126H11.8136H11.8136H11.8136H11.8136H11.8136H11.8137C12.4436 29.4131 13.0672 29.4135 13.6902 29.4078C13.7576 29.4073 13.8313 29.3561 13.8909 29.3134C14.9487 28.5562 16.3248 28.5522 17.3927 29.2966C17.4872 29.3623 17.6193 29.4067 17.734 29.4073C19.1987 29.4132 20.6631 29.4128 22.1274 29.4125L23.1618 29.4123H23.3851C23.3869 29.3901 23.3886 29.3723 23.3901 29.3573L23.3901 29.3573C23.3924 29.334 23.3941 29.3173 23.3941 29.3005L23.3943 27.0519C23.3946 24.8033 23.3949 22.5546 23.3924 20.306C23.3918 19.7611 22.9431 19.3246 22.3954 19.3229C21.6295 19.3203 20.864 19.3211 20.0983 19.3218H20.0982H20.098H20.0979H20.0978H20.0977H20.0976L19.4081 19.3224C19.3616 19.3224 19.3151 19.3281 19.2986 19.3301L19.2929 19.3308C19.232 19.4978 19.1759 19.6637 19.1204 19.8276L19.1204 19.8277L19.1204 19.8277C19.001 20.1803 18.8848 20.5237 18.7316 20.8493C17.8291 22.7666 16.4721 24.3457 14.956 25.7973C14.5759 26.1619 13.9871 26.1372 13.6047 25.7563C13.1087 25.262 12.6273 24.7524 12.1561 24.2345C11.9496 24.0077 11.7574 23.7683 11.5584 23.5207C11.4691 23.4094 11.3784 23.2965 11.2844 23.1823ZM29.9927 29.4073C29.85 29.4073 29.7086 29.4075 29.5681 29.4077C29.1302 29.4085 28.7014 29.4092 28.2726 29.4028C28.1984 29.4017 28.118 29.3499 28.0528 29.3043C27.0132 28.5749 25.6853 28.5537 24.6244 29.2531C24.3591 29.4279 24.3102 29.4379 23.945 29.3839V29.184V22.54C23.945 22.1653 24.0371 22.0734 24.4131 22.0734H27.8815C28.4299 22.0734 28.7828 22.32 28.9424 22.8401C29.244 23.8244 29.5392 24.8109 29.8343 25.7969L29.9736 26.262C29.991 26.3205 29.9989 26.3845 29.9989 26.4458C30.0006 27.388 30 28.3301 29.9995 29.2718V29.2737V29.2781C29.9998 29.3006 29.9983 29.3229 29.9962 29.3525L29.9962 29.3526L29.9962 29.3527L29.9962 29.353L29.9962 29.3534C29.9951 29.3689 29.9939 29.3866 29.9927 29.4073ZM26.2158 23.4052L25.8309 23.4051C25.5742 23.405 25.3175 23.4048 25.0604 23.4052C24.7334 23.4058 24.6171 23.5199 24.6165 23.8412C24.6154 24.4308 24.6159 25.0204 24.6165 25.6101C24.6171 25.9592 24.7323 26.1017 25.0796 26.0644C25.6084 26.0082 26.0281 26.1368 26.3501 26.5772C26.4176 26.6696 26.589 26.727 26.7143 26.7314C27.1451 26.7466 27.5767 26.7428 28.0081 26.739L28.1843 26.7375C28.5041 26.7347 28.648 26.5482 28.5575 26.2448C28.4374 25.8435 28.3152 25.4428 28.1931 25.0421C28.057 24.5956 27.9209 24.1492 27.7876 23.702C27.7235 23.4876 27.5904 23.4008 27.3718 23.4035C27.0988 23.4075 26.8258 23.4067 26.553 23.4059H26.5529H26.5529H26.5528H26.5527H26.5527H26.5526H26.5525C26.4402 23.4055 26.328 23.4052 26.2158 23.4052ZM25.301 27.4079C25.2622 27.4079 25.2234 27.4071 25.1846 27.4062H25.1846H25.1846H25.1846H25.1846H25.1846C25.0974 27.4043 25.0102 27.4024 24.9239 27.4101C24.7401 27.4268 24.6311 27.5321 24.6165 27.718C24.6019 27.8995 24.7143 28.0515 24.9025 28.0638C25.1599 28.0805 25.4201 28.0816 25.6775 28.0632C25.8601 28.0504 25.9618 27.9263 25.9646 27.7392C25.9674 27.5577 25.8483 27.4263 25.6578 27.4101C25.5753 27.4031 25.4922 27.4048 25.4094 27.4065C25.3732 27.4072 25.337 27.4079 25.301 27.4079ZM18.0734 31.7111C18.0751 30.4347 17.0117 29.4117 15.6841 29.4128C14.369 29.4139 13.3039 30.4363 13.3027 31.699C13.3016 32.9716 14.3707 34.0011 15.6926 34C17.0043 33.9989 18.0717 32.9727 18.0734 31.7111ZM14.6645 31.7056C14.6633 31.1802 15.1319 30.727 15.6812 30.7226C16.23 30.7182 16.702 31.1637 16.7088 31.6941C16.7168 32.219 16.2528 32.6777 15.7034 32.6886C15.1518 32.7001 14.6656 32.2403 14.6645 31.7056ZM28.7156 31.713C28.7133 32.9829 27.6407 34.0033 26.3118 34C25.0068 33.9967 23.9433 32.9616 23.945 31.6971C23.9467 30.4266 25.0171 29.4096 26.3499 29.4128C27.66 29.4156 28.7179 30.4441 28.7156 31.713ZM26.33 32.689C26.8766 32.6895 27.3474 32.2379 27.352 31.7097C27.3566 31.1826 26.8908 30.7288 26.3403 30.7228C25.784 30.7167 25.3029 31.1771 25.3074 31.7103C25.3114 32.2374 25.7829 32.6884 26.33 32.689ZM18.0734 29.9633C18.4619 30.5896 18.6189 31.2523 18.5597 31.9817H23.2813C23.2137 31.2483 23.3858 30.5833 23.7615 29.9633H18.0734ZM13.1193 29.9633C12.7329 30.5892 12.5762 31.2468 12.637 31.9769C12.5302 31.9769 12.424 31.9781 12.3182 31.9793C12.0615 31.9822 11.8073 31.9851 11.5542 31.9706C11.387 31.961 11.2872 31.8262 11.286 31.6472C11.284 31.2435 11.2843 30.8397 11.2847 30.4304L11.2849 29.9639C11.8938 29.9633 12.492 29.9633 13.1193 29.9633ZM29.9992 30.4461C29.9989 30.2857 29.9985 30.1249 29.9985 29.9633H28.8991C29.2691 30.5909 29.4085 31.2571 29.3575 31.9782C29.3994 31.9782 29.4394 31.9791 29.4778 31.98C29.56 31.9819 29.6355 31.9837 29.7101 31.976C29.8827 31.9584 29.9932 31.8484 29.9959 31.6619C30.0011 31.2582 30.0002 30.8539 29.9992 30.4461Z" fill="#464646"/>
</svg>
