<svg width="40" height="38" viewBox="0 0 40 38" fill="none" xmlns="http://www.w3.org/2000/svg">
<rect width="40" height="48" fill="white"/>
<path fill-rule="evenodd" clip-rule="evenodd" d="M27.1281 32.7948C27.4872 32.4358 27.6667 32.0042 27.6667 31.5V16.8334C27.6667 16.3292 27.4872 15.8976 27.1281 15.5386C26.7691 15.1796 26.3375 15 25.8333 15H22.7396C22.5715 15 22.4264 15.0535 22.3042 15.1605C22.1819 15.2674 22.1056 15.4049 22.075 15.573C21.9528 15.9396 21.7312 16.2414 21.4104 16.4782C21.0896 16.715 20.7306 16.8334 20.3333 16.8334C19.9361 16.8334 19.5771 16.715 19.2562 16.4782C18.9354 16.2414 18.7139 15.9396 18.5917 15.573C18.5611 15.4049 18.4847 15.2674 18.3625 15.1605C18.2403 15.0535 18.0951 15 17.9271 15H14.8333C14.3292 15 13.8976 15.1796 13.5385 15.5386C13.1795 15.8976 13 16.3292 13 16.8334L13 31.5C13 32.0042 13.1795 32.4358 13.5385 32.7948C13.8976 33.1539 14.3292 33.3334 14.8333 33.3334H17.9271C18.0951 33.3334 18.2403 33.2799 18.3625 33.173C18.4847 33.066 18.5611 32.9285 18.5917 32.7605C18.7139 32.3938 18.9354 32.0921 19.2562 31.8552C19.5771 31.6184 19.9361 31.5 20.3333 31.5C20.7306 31.5 21.0896 31.6184 21.4104 31.8552C21.7312 32.0921 21.9528 32.3938 22.075 32.7605C22.1056 32.9285 22.1819 33.066 22.3042 33.173C22.4264 33.2799 22.5715 33.3334 22.7396 33.3334H25.8333C26.3375 33.3334 26.7691 33.1539 27.1281 32.7948ZM20.9865 28.4865C20.8108 28.6622 20.5931 28.75 20.3334 28.75C20.0736 28.75 19.8559 28.6622 19.6802 28.4865C19.5045 28.3108 19.4167 28.0931 19.4167 27.8334C19.4167 27.5737 19.5045 27.3559 19.6802 27.1802C19.8559 27.0046 20.0736 26.9167 20.3334 26.9167C20.5931 26.9167 20.8108 27.0046 20.9865 27.1802C21.1622 27.3559 21.25 27.5737 21.25 27.8334C21.25 28.0931 21.1622 28.3108 20.9865 28.4865ZM20.9865 24.8198C20.8108 24.9955 20.5931 25.0834 20.3334 25.0834C20.0736 25.0834 19.8559 24.9955 19.6802 24.8198C19.5045 24.6441 19.4167 24.4264 19.4167 24.1667V20.5C19.4167 20.2403 19.5045 20.0226 19.6802 19.8469C19.8559 19.6712 20.0736 19.5834 20.3334 19.5834C20.5931 19.5834 20.8108 19.6712 20.9865 19.8469C21.1622 20.0226 21.25 20.2403 21.25 20.5V24.1667C21.25 24.4264 21.1622 24.6441 20.9865 24.8198Z" fill="#464646"/>
</svg>
