<svg width="40" height="48" viewBox="0 0 40 48" fill="none" xmlns="http://www.w3.org/2000/svg">
<rect width="40" height="48" fill="white"/>
<g clip-path="url(#clip0_58_1850)">
<path d="M16.5565 13.9849C16.5872 13.9847 16.6178 13.9845 16.6493 13.9842C16.7518 13.9837 16.8543 13.984 16.9568 13.9842C17.0304 13.984 17.1039 13.9837 17.1774 13.9834C17.3771 13.9827 17.5768 13.9828 17.7765 13.983C17.9431 13.9831 18.1098 13.9829 18.2765 13.9826C18.6697 13.9821 19.0629 13.9822 19.4561 13.9826C19.8618 13.983 20.2675 13.9825 20.6731 13.9815C21.0214 13.9806 21.3697 13.9803 21.718 13.9806C21.9261 13.9807 22.1341 13.9806 22.3421 13.9799C22.5377 13.9793 22.7333 13.9795 22.929 13.9802C23.0007 13.9804 23.0725 13.9802 23.1443 13.9798C23.2423 13.9793 23.3403 13.9798 23.4383 13.9804C23.4667 13.9801 23.495 13.9797 23.5243 13.9793C23.7213 13.9822 23.8317 14.0341 23.9843 14.1563C24.1518 14.3388 24.1162 14.5734 24.1129 14.8065C24.1127 14.8504 24.1126 14.8943 24.1124 14.9396C24.1117 15.0797 24.1103 15.2198 24.1088 15.3599C24.1082 15.455 24.1077 15.5501 24.1072 15.6452C24.1059 15.878 24.1039 16.1109 24.1015 16.3438C24.1251 16.343 24.1487 16.3421 24.173 16.3413C24.281 16.338 24.389 16.336 24.497 16.334C24.5341 16.3327 24.5713 16.3314 24.6096 16.33C24.8377 16.3269 24.9802 16.3389 25.1561 16.5C25.3237 16.6825 25.2881 16.9171 25.2848 17.1502C25.2846 17.1941 25.2844 17.2381 25.2843 17.2834C25.2836 17.4235 25.2822 17.5635 25.2807 17.7036C25.2801 17.7987 25.2795 17.8938 25.2791 17.9889C25.2778 18.2218 25.2758 18.4547 25.2733 18.6875C25.3088 18.6863 25.3088 18.6863 25.3449 18.685C25.4529 18.6818 25.5608 18.6798 25.6688 18.6778C25.706 18.6764 25.7432 18.6751 25.7815 18.6738C26.0096 18.6706 26.1521 18.6826 26.328 18.8438C26.4219 18.9635 26.4456 19.0218 26.4421 19.1759C26.4347 19.2295 26.4267 19.283 26.4181 19.3364C26.4098 19.3977 26.4017 19.4591 26.3936 19.5204C26.3893 19.553 26.3849 19.5856 26.3805 19.6191C26.2376 20.7616 26.0915 22.0895 26.8328 23.051C27.1434 23.431 27.4917 23.7724 27.8539 24.1026C27.8864 24.1322 27.9189 24.1619 27.9524 24.1924C28.3316 24.5358 28.722 24.8634 29.1228 25.1812C29.3372 25.3516 29.5439 25.5309 29.7387 25.7237C29.7635 25.7479 29.7883 25.7722 29.8139 25.7972C29.9794 25.9844 30.0171 26.1336 30.015 26.3799C30.0154 26.4264 30.0154 26.4264 30.0157 26.4737C30.0162 26.5773 30.016 26.6809 30.0157 26.7844C30.0159 26.8587 30.0162 26.9331 30.0165 27.0074C30.0172 27.2091 30.0171 27.4109 30.0169 27.6127C30.0168 27.7811 30.017 27.9495 30.0173 28.1179C30.0178 28.5153 30.0178 28.9126 30.0173 29.3099C30.0169 29.7199 30.0174 30.1298 30.0185 30.5397C30.0193 30.8917 30.0196 31.2436 30.0194 31.5956C30.0192 31.8058 30.0193 32.016 30.02 32.2262C30.0206 32.4239 30.0205 32.6215 30.0197 32.8192C30.0196 32.8917 30.0197 32.9643 30.0201 33.0368C30.0206 33.1358 30.0202 33.2348 30.0195 33.3339C30.0199 33.3626 30.0202 33.3912 30.0206 33.4208C30.0178 33.619 29.9716 33.7323 29.8436 33.8828C29.6775 34.0115 29.5262 34.0166 29.3236 34.0149C29.2909 34.0151 29.2581 34.0152 29.2244 34.0154C29.1142 34.0159 29.004 34.0155 28.8938 34.0152C28.8142 34.0153 28.7346 34.0155 28.6551 34.0158C28.4359 34.0164 28.2168 34.0162 27.9977 34.0159C27.7615 34.0157 27.5254 34.0162 27.2892 34.0166C26.8532 34.0173 26.4171 34.0174 25.9811 34.0172C25.5783 34.017 25.1754 34.017 24.7726 34.0172C24.7186 34.0173 24.6646 34.0173 24.6106 34.0173C24.5292 34.0174 24.4479 34.0174 24.3665 34.0175C23.6098 34.0179 22.8531 34.0181 22.0964 34.0177C22.0679 34.0177 22.0394 34.0177 22.01 34.0177C21.7783 34.0176 21.5465 34.0175 21.3148 34.0174C20.4108 34.017 19.5069 34.0173 18.6029 34.0183C17.5876 34.0193 16.5724 34.0198 15.5571 34.0195C15.4488 34.0195 15.3406 34.0194 15.2324 34.0194C15.2058 34.0194 15.1791 34.0194 15.1517 34.0194C14.7491 34.0193 14.3465 34.0196 13.944 34.0201C13.4863 34.0207 13.0285 34.0207 12.5708 34.02C12.3372 34.0197 12.1035 34.0196 11.8699 34.0202C11.6561 34.0208 11.4424 34.0206 11.2286 34.0198C11.1512 34.0197 11.0737 34.0198 10.9962 34.0202C10.8912 34.0207 10.7862 34.0203 10.6811 34.0196C10.6508 34.02 10.6205 34.0203 10.5893 34.0207C10.3872 34.018 10.273 33.9709 10.1171 33.8438C9.98752 33.6858 9.98298 33.5363 9.98423 33.3394C9.98396 33.3085 9.9837 33.2776 9.98342 33.2458C9.98268 33.1424 9.98278 33.039 9.98287 32.9356C9.98252 32.8614 9.98212 32.7872 9.98168 32.7131C9.98065 32.5116 9.98037 32.3102 9.9803 32.1087C9.98021 31.9828 9.97996 31.8569 9.97965 31.731C9.97857 31.2917 9.97809 30.8525 9.97818 30.4132C9.97825 30.0038 9.97702 29.5945 9.97517 29.1852C9.97363 28.8337 9.973 28.4821 9.97308 28.1306C9.97311 27.9207 9.97278 27.7108 9.97154 27.5008C9.9704 27.3034 9.97039 27.1059 9.97124 26.9084C9.97137 26.8361 9.97109 26.7637 9.97038 26.6913C9.96432 26.0298 9.96432 26.0298 10.1745 25.811C10.1942 25.7934 10.2139 25.7759 10.2343 25.7578C10.2664 25.7227 10.2985 25.6876 10.3316 25.6515C10.3623 25.6213 10.3931 25.5912 10.4247 25.5601C10.4552 25.5298 10.4857 25.4996 10.5172 25.4684C10.7156 25.282 10.9202 25.106 11.135 24.9388C11.5169 24.6414 11.8847 24.3298 12.2436 24.0049C12.2737 23.9776 12.3039 23.9503 12.335 23.9222C13.1234 23.2003 13.6354 22.5541 13.6953 21.4602C13.7196 20.8188 13.677 20.1665 13.5967 19.5298C13.593 19.4983 13.5892 19.4668 13.5853 19.4344C13.5782 19.3762 13.5702 19.3181 13.5613 19.2602C13.5428 19.1102 13.5531 19.0418 13.6264 18.9074C13.7196 18.7941 13.7692 18.7407 13.9061 18.6875C14.0473 18.6741 14.1869 18.6765 14.3285 18.6802C14.3668 18.6807 14.405 18.6813 14.4444 18.6818C14.5384 18.6832 14.6324 18.6851 14.7265 18.6875C14.7259 18.6509 14.7259 18.6509 14.7254 18.6135C14.7219 18.3587 14.7196 18.104 14.7179 17.8492C14.7171 17.7542 14.716 17.6592 14.7147 17.5642C14.7128 17.4274 14.7119 17.2908 14.7112 17.154C14.7104 17.1116 14.7096 17.0693 14.7088 17.0256C14.7087 16.7927 14.7162 16.6395 14.8827 16.461C15.0617 16.3001 15.2734 16.3305 15.5004 16.3365C15.5386 16.337 15.5769 16.3375 15.6163 16.3381C15.7103 16.3394 15.8043 16.3414 15.8983 16.3438C15.898 16.3193 15.8976 16.2949 15.8973 16.2697C15.8938 16.015 15.8915 15.7603 15.8898 15.5055C15.889 15.4105 15.8879 15.3154 15.8865 15.2204C15.8846 15.0837 15.8838 14.947 15.8831 14.8103C15.8823 14.7679 15.8815 14.7255 15.8806 14.6819C15.8806 14.4489 15.8881 14.2957 16.0546 14.1172C16.2173 13.9941 16.359 13.9833 16.5565 13.9849ZM17.0702 15.1719C17.0702 15.5586 17.0702 15.9453 17.0702 16.3438C19.0038 16.3438 20.9374 16.3438 22.9296 16.3438C22.9296 15.9571 22.9296 15.5703 22.9296 15.1719C20.996 15.1719 19.0624 15.1719 17.0702 15.1719ZM15.8983 17.5156C15.8983 17.9024 15.8983 18.2891 15.8983 18.6875C18.6054 18.6875 21.3124 18.6875 24.1015 18.6875C24.1015 18.3008 24.1015 17.9141 24.1015 17.5156C21.3944 17.5156 18.6874 17.5156 15.8983 17.5156ZM14.7265 19.8594C14.7265 21.793 14.7265 23.7266 14.7265 25.7188C15.2679 25.7317 15.8093 25.7446 16.3671 25.7578C16.8115 25.906 17.1116 26.0348 17.3997 26.3871C17.6459 26.6801 17.8641 26.9168 18.2571 26.9692C18.4637 26.9833 18.6685 26.9836 18.8755 26.9802C18.9657 26.9808 19.0559 26.9815 19.1461 26.9824C19.3342 26.9836 19.5221 26.9823 19.7101 26.9794C19.9494 26.9758 20.1881 26.9784 20.4273 26.9828C20.6133 26.9855 20.7992 26.9849 20.9852 26.9832C21.0732 26.9829 21.1613 26.9835 21.2493 26.9853C21.702 26.9926 22.0297 26.9703 22.367 26.646C22.4529 26.5546 22.5342 26.4609 22.6148 26.3648C22.9061 26.0233 23.196 25.9034 23.6327 25.7578C24.1741 25.7449 24.7155 25.7321 25.2733 25.7188C25.2733 23.7852 25.2733 21.8516 25.2733 19.8594C21.7929 19.8594 18.3124 19.8594 14.7265 19.8594ZM13.3784 24.3665C13.3495 24.3953 13.3205 24.4241 13.2907 24.4538C13.2593 24.4853 13.2279 24.5167 13.1955 24.5492C13.1635 24.5812 13.1315 24.6132 13.0985 24.6461C13.0306 24.714 12.9628 24.7818 12.8951 24.8498C12.7909 24.9542 12.6865 25.0583 12.5821 25.1625C12.5164 25.2282 12.4507 25.294 12.385 25.3597C12.3535 25.3911 12.322 25.4226 12.2896 25.4549C12.2608 25.4839 12.2319 25.5128 12.2023 25.5426C12.1767 25.5682 12.1511 25.5938 12.1248 25.6201C12.0658 25.671 12.0658 25.671 12.0702 25.7188C12.5601 25.7188 13.0499 25.7188 13.5546 25.7188C13.5546 25.2289 13.5546 24.7391 13.5546 24.2344C13.4799 24.2344 13.4278 24.3171 13.3784 24.3665ZM26.4452 24.2344C26.4452 24.7242 26.4452 25.2141 26.4452 25.7188C26.9351 25.7188 27.4249 25.7188 27.9296 25.7188C27.7484 25.5053 27.7484 25.5053 27.5581 25.3031C27.534 25.2789 27.5099 25.2547 27.485 25.2297C27.4599 25.2047 27.4347 25.1796 27.4088 25.1537C27.3823 25.1273 27.3559 25.1008 27.3286 25.0735C27.2732 25.018 27.2178 24.9627 27.1623 24.9073C27.077 24.8222 26.9918 24.7369 26.9067 24.6515C26.8527 24.5975 26.7987 24.5436 26.7447 24.4897C26.7192 24.464 26.6936 24.4384 26.6673 24.412C26.5711 24.292 26.5711 24.292 26.4452 24.2344ZM11.1718 26.8907C11.1718 28.85 11.1718 30.8094 11.1718 32.8282C16.9983 32.8282 22.8249 32.8282 28.828 32.8282C28.828 30.8688 28.828 28.9094 28.828 26.8907C28.0417 26.889 27.2554 26.8874 26.4452 26.8858C26.1972 26.8851 25.9492 26.8843 25.6937 26.8836C25.4708 26.8834 25.4708 26.8834 25.2479 26.8832C25.1488 26.8831 25.0498 26.8828 24.9508 26.8824C24.8005 26.8818 24.6502 26.8818 24.4999 26.8818C24.456 26.8815 24.4121 26.8812 24.3669 26.8809C23.9535 26.8809 23.9535 26.8809 23.5924 27.0618C23.555 27.0998 23.5183 27.1383 23.4821 27.1774C23.4622 27.1978 23.4423 27.2182 23.4218 27.2392C23.3589 27.304 23.2968 27.3695 23.2348 27.4351C23.1722 27.5004 23.1094 27.5656 23.0465 27.6305C23.0075 27.6708 22.9688 27.7113 22.9304 27.7521C22.7953 27.8929 22.6724 28.0097 22.4743 28.0385C22.4369 28.0387 22.3995 28.0389 22.3609 28.0391C22.3177 28.0396 22.2745 28.0401 22.23 28.0406C22.183 28.0406 22.1359 28.0405 22.0875 28.0405C22.0128 28.0411 22.0128 28.0411 21.9365 28.0417C21.8001 28.0427 21.6637 28.043 21.5273 28.0431C21.442 28.0431 21.3567 28.0434 21.2713 28.0437C20.9734 28.0448 20.6754 28.0453 20.3775 28.0452C20.1002 28.0451 19.823 28.0463 19.5457 28.0482C19.3073 28.0497 19.0689 28.0504 18.8304 28.0503C18.6882 28.0503 18.546 28.0506 18.4038 28.0518C18.245 28.0532 18.0863 28.0526 17.9275 28.0519C17.8573 28.0529 17.8573 28.0529 17.7857 28.0539C17.4895 28.0506 17.3213 27.9982 17.1093 27.7891C17.0744 27.7559 17.0394 27.7226 17.0035 27.6884C16.9727 27.6558 16.942 27.6231 16.9103 27.5895C16.8584 27.5356 16.8584 27.5356 16.8055 27.4807C16.7343 27.406 16.6634 27.3311 16.5928 27.2558C16.5409 27.2022 16.5409 27.2022 16.4879 27.1476C16.4572 27.1151 16.4265 27.0827 16.3948 27.0492C16.1365 26.8529 15.8096 26.8798 15.4999 26.8818C15.4523 26.8818 15.4046 26.8818 15.3555 26.8818C15.202 26.8818 15.0484 26.8824 14.8949 26.883C14.7998 26.8831 14.7047 26.8832 14.6097 26.8833C14.258 26.8837 13.9063 26.8848 13.5546 26.8858C12.3751 26.8882 12.3751 26.8882 11.1718 26.8907Z" fill="#464646"/>
<path d="M16.5566 23.3599C16.5872 23.3597 16.6179 23.3595 16.6494 23.3592C16.7519 23.3587 16.8544 23.359 16.9569 23.3592C17.0304 23.359 17.104 23.3587 17.1775 23.3584C17.3772 23.3577 17.5768 23.3578 17.7765 23.358C17.9432 23.3581 18.1099 23.3579 18.2766 23.3576C18.6698 23.3571 19.063 23.3572 19.4562 23.3576C19.8619 23.358 20.2675 23.3575 20.6732 23.3565C21.0215 23.3556 21.3698 23.3553 21.7181 23.3556C21.9261 23.3557 22.1342 23.3556 22.3422 23.3549C22.5378 23.3543 22.7334 23.3545 22.929 23.3552C23.0008 23.3554 23.0726 23.3552 23.1443 23.3548C23.2424 23.3543 23.3403 23.3548 23.4384 23.3554C23.4667 23.3551 23.4951 23.3547 23.5243 23.3543C23.7212 23.3572 23.8323 23.4083 23.9843 23.5313C24.1428 23.7353 24.1318 23.9474 24.1015 24.1953C24.0165 24.3748 23.9272 24.4615 23.75 24.5469C23.6446 24.558 23.5485 24.5629 23.4433 24.562C23.4127 24.5623 23.3821 24.5625 23.3505 24.5627C23.248 24.5632 23.1455 24.563 23.043 24.5627C22.9695 24.5629 22.896 24.5632 22.8224 24.5635C22.6227 24.5642 22.4231 24.5641 22.2234 24.5639C22.0567 24.5638 21.89 24.564 21.7234 24.5643C21.3302 24.5648 20.937 24.5648 20.5438 24.5643C20.1381 24.5639 19.7324 24.5644 19.3267 24.5655C18.9784 24.5663 18.6301 24.5666 18.2818 24.5664C18.0738 24.5662 17.8658 24.5663 17.6577 24.567C17.4621 24.5676 17.2665 24.5675 17.0709 24.5667C16.9991 24.5666 16.9274 24.5667 16.8556 24.5671C16.7576 24.5676 16.6596 24.5672 16.5616 24.5665C16.5332 24.5669 16.5048 24.5672 16.4756 24.5676C16.2787 24.5648 16.1676 24.5137 16.0156 24.3906C15.8571 24.1866 15.8682 23.9745 15.8984 23.7266C16.0404 23.4268 16.2403 23.3573 16.5566 23.3599Z" fill="#464646"/>
<path d="M16.5566 21.0161C16.5872 21.0159 16.6179 21.0157 16.6494 21.0155C16.7519 21.0149 16.8544 21.0152 16.9569 21.0155C17.0304 21.0153 17.104 21.015 17.1775 21.0147C17.3772 21.014 17.5768 21.014 17.7765 21.0142C17.9432 21.0144 18.1099 21.0141 18.2766 21.0139C18.6698 21.0133 19.063 21.0134 19.4562 21.0139C19.8619 21.0143 20.2675 21.0137 20.6732 21.0127C21.0215 21.0118 21.3698 21.0116 21.7181 21.0118C21.9261 21.0119 22.1342 21.0118 22.3422 21.0112C22.5378 21.0106 22.7334 21.0107 22.929 21.0115C23.0008 21.0116 23.0726 21.0115 23.1443 21.0111C23.2424 21.0106 23.3403 21.011 23.4384 21.0117C23.4667 21.0113 23.4951 21.0109 23.5243 21.0106C23.7212 21.0134 23.8323 21.0645 23.9843 21.1875C24.1428 21.3915 24.1318 21.6037 24.1015 21.8516C24.0165 22.0311 23.9272 22.1177 23.75 22.2031C23.6446 22.2143 23.5485 22.2192 23.4433 22.2183C23.4127 22.2185 23.3821 22.2187 23.3505 22.2189C23.248 22.2195 23.1455 22.2192 23.043 22.2189C22.9695 22.2192 22.896 22.2194 22.8224 22.2197C22.6227 22.2204 22.4231 22.2204 22.2234 22.2202C22.0567 22.2201 21.89 22.2203 21.7234 22.2205C21.3302 22.2211 20.937 22.221 20.5438 22.2206C20.1381 22.2201 19.7324 22.2207 19.3267 22.2217C18.9784 22.2226 18.6301 22.2228 18.2818 22.2226C18.0738 22.2225 17.8658 22.2226 17.6577 22.2233C17.4621 22.2239 17.2665 22.2237 17.0709 22.223C16.9991 22.2228 16.9274 22.2229 16.8556 22.2234C16.7576 22.2239 16.6596 22.2234 16.5616 22.2227C16.5332 22.2231 16.5048 22.2235 16.4756 22.2239C16.2787 22.221 16.1676 22.1699 16.0156 22.0469C15.8571 21.8429 15.8682 21.6308 15.8984 21.3828C16.0404 21.0831 16.2403 21.0135 16.5566 21.0161Z" fill="#464646"/>
<path d="M18.8705 29.2186C18.8975 29.2183 18.9246 29.218 18.9525 29.2178C19.0417 29.2171 19.1308 29.2172 19.2199 29.2174C19.2821 29.2173 19.3443 29.217 19.4065 29.2168C19.5368 29.2165 19.667 29.2166 19.7973 29.2169C19.9639 29.2174 20.1305 29.2166 20.2971 29.2155C20.4255 29.2147 20.554 29.2148 20.6824 29.215C20.7438 29.215 20.8052 29.2148 20.8666 29.2143C20.9527 29.2137 21.0386 29.2141 21.1246 29.2148C21.1979 29.2148 21.1979 29.2148 21.2727 29.2148C21.4683 29.2435 21.5924 29.3285 21.7129 29.4835C21.7944 29.6691 21.7821 29.8563 21.7579 30.0547C21.6727 30.2345 21.583 30.3195 21.4063 30.4062C21.2776 30.4214 21.2776 30.4214 21.1297 30.422C21.1026 30.4223 21.0755 30.4226 21.0476 30.4228C20.9585 30.4236 20.8694 30.4234 20.7803 30.4232C20.718 30.4234 20.6558 30.4236 20.5936 30.4238C20.4633 30.4242 20.3331 30.4241 20.2028 30.4237C20.0362 30.4232 19.8697 30.424 19.7031 30.4251C19.5746 30.4259 19.4462 30.4259 19.3177 30.4256C19.2563 30.4256 19.1949 30.4259 19.1335 30.4263C19.0475 30.4269 18.9615 30.4265 18.8755 30.4258C18.8267 30.4258 18.7778 30.4258 18.7275 30.4258C18.5318 30.3972 18.4077 30.3121 18.2873 30.1571C18.2057 29.9715 18.2181 29.7843 18.2423 29.5859C18.3784 29.2986 18.5625 29.2199 18.8705 29.2186Z" fill="#464646"/>
</g>
<defs>
<clipPath id="clip0_58_1850">
<rect width="20" height="20" fill="white" transform="translate(10 14)"/>
</clipPath>
</defs>
</svg>
