<svg width="40" height="48" viewBox="0 0 40 48" fill="none" xmlns="http://www.w3.org/2000/svg">
<rect width="40" height="48" fill="white"/>
<path fill-rule="evenodd" clip-rule="evenodd" d="M11.875 31.125C12.4583 31.7083 13.1667 32 14 32C14.8333 32 15.5417 31.7083 16.125 31.125C16.7083 30.5417 17 29.8333 17 29H23C23 29.8333 23.2917 30.5417 23.875 31.125C24.4583 31.7083 25.1667 32 26 32C26.8333 32 27.5417 31.7083 28.125 31.125C28.7083 30.5417 29 29.8333 29 29H31V24L28 20H25V16H11C10.45 16 9.97917 16.1958 9.5875 16.5875C9.19583 16.9792 9 17.45 9 18V29H11C11 29.8333 11.2917 30.5417 11.875 31.125ZM14.7125 29.7125C14.5208 29.9042 14.2833 30 14 30C13.7167 30 13.4792 29.9042 13.2875 29.7125C13.0958 29.5208 13 29.2833 13 29C13 28.7167 13.0958 28.4792 13.2875 28.2875C13.4792 28.0958 13.7167 28 14 28C14.2833 28 14.5208 28.0958 14.7125 28.2875C14.9042 28.4792 15 28.7167 15 29C15 29.2833 14.9042 29.5208 14.7125 29.7125ZM26.7125 29.7125C26.5208 29.9042 26.2833 30 26 30C25.7167 30 25.4792 29.9042 25.2875 29.7125C25.0958 29.5208 25 29.2833 25 29C25 28.7167 25.0958 28.4792 25.2875 28.2875C25.4792 28.0958 25.7167 28 26 28C26.2833 28 26.5208 28.0958 26.7125 28.2875C26.9042 28.4792 27 28.7167 27 29C27 29.2833 26.9042 29.5208 26.7125 29.7125ZM29.25 25H25V22H27L29.25 25ZM20.9 21.045L16.6438 25.1883L14 22.585L15.05 21.5583L16.6438 23.1167L19.8313 20L20.9 21.045Z" fill="#464646"/>
</svg>
