<svg width="40" height="48" viewBox="0 0 40 48" fill="none" xmlns="http://www.w3.org/2000/svg">
<rect width="40" height="48" fill="white"/>
<path fill-rule="evenodd" clip-rule="evenodd" d="M13.7262 20.5043C13.49 20.5043 13.2706 20.754 13.2706 20.997C13.2706 21.2839 13.4933 21.5235 13.7971 21.5235H19.8792C20.5779 21.5235 20.534 20.5043 19.9501 20.5043H13.7262ZM13.7262 18.0441C13.49 18.0441 13.2706 18.2938 13.2706 18.5368C13.2706 18.8236 13.4933 19.0632 13.7971 19.0632H19.8792C20.5779 19.0632 20.534 18.0441 19.9501 18.0441H13.7262ZM10 26.373V17.0586C10 16.2892 10.6143 15.5197 11.3298 15.2632C11.5728 15.1755 11.8732 15.1249 12.2141 15.1249H22.3398C22.7077 15.1249 22.9709 15.3611 22.9709 15.6176V22.4718C22.9709 22.7924 22.8629 23.0792 22.7515 23.3054C22.3533 24.1052 21.6141 24.4055 20.723 24.4055C20.5971 24.4055 20.2879 24.4041 19.8701 24.4021C18.1826 24.3941 14.7252 24.3778 14.4384 24.4157C14.0671 24.4629 13.949 24.5405 13.6824 24.716C13.5674 24.7926 13.4644 24.8672 13.3603 24.9425C13.2718 25.0066 13.1827 25.0712 13.0849 25.1379C12.874 25.2813 12.6723 25.4289 12.4707 25.5766C12.269 25.7242 12.0673 25.8719 11.8564 26.0153L10.9349 26.6768C10.4084 27.0649 10 26.6531 10 26.373ZM21.9651 25.2627C23.2072 24.851 24.0274 23.6327 24.0274 22.2625V19.2387H26.1369C27.0144 19.2387 28 20.1567 28 21.1725V30.4531C28 30.6151 27.7165 31.2462 27.0212 30.7265L26.0289 30.0313C25.9539 29.9768 25.8784 29.9215 25.8028 29.8661C25.6676 29.767 25.532 29.6676 25.3977 29.5723C24.5564 28.9809 24.2719 28.7157 23.9358 28.5994C23.5816 28.4767 23.17 28.5194 21.9887 28.5194C21.4926 28.5194 20.9964 28.519 20.5003 28.5186C19.508 28.5179 18.5156 28.5171 17.5233 28.5194C16.693 28.5194 16.261 28.4215 15.7784 28.0469C14.9958 27.434 15.008 26.6743 15.0219 25.8139C15.0238 25.6983 15.0257 25.5809 15.0257 25.4618H20.4766C21.0943 25.4618 21.4892 25.4213 21.9651 25.2627Z" fill="#464646"/>
</svg>
